# WaveFront *.obj file (generated by Autodesk ATF)

mtllib Pololu.mtl

g Sólido1

v -39.258819 -19.000000 48.127236
v -39.258819 79.000001 48.127236
v -39.000001 -19.000000 -17.500000
v -39.000001 -19.000000 29.500000
v -39.000001 -19.000000 47.161307
v -39.000001 0.000000 -17.500000
v -39.000001 0.000000 29.500000
v -39.000001 60.000000 -17.500000
v -39.000001 60.000000 29.500000
v -39.000001 79.000001 -17.500000
v -39.000001 79.000001 29.500000
v -39.000001 79.000001 47.161307
v -37.922006 0.000000 -23.893721
v -37.922006 60.000000 -23.893721
v -35.275831 -19.000000 -28.961813
v -35.275831 -19.000000 40.961814
v -35.275831 0.000000 40.961814
v -35.275831 60.000000 40.961814
v -35.275831 79.000001 -28.961813
v -35.275831 79.000001 40.961814
v -34.807212 0.000000 -29.580531
v -34.807212 60.000000 -29.580531
v -30.000000 0.000000 -33.931677
v -30.000000 0.000000 37.000000
v -30.000000 60.000000 -33.931677
v -30.000000 60.000000 37.000000
v -25.525832 -19.000000 -36.045601
v -25.525832 -19.000000 48.045602
v -25.525832 0.000000 48.045602
v -25.525832 60.000000 48.045602
v -25.525832 79.000001 -36.045601
v -25.525832 79.000001 48.045602
v -13.474169 -19.000000 -36.045601
v -13.474169 -19.000000 48.045602
v -13.474169 0.000000 48.045602
v -13.474169 60.000000 48.045602
v -13.474169 79.000001 -36.045601
v -13.474169 79.000001 48.045602
v -5.000000 0.000000 -30.538404
v -5.000000 0.000000 37.000000
v -5.000000 60.000000 -30.538404
v -5.000000 60.000000 37.000000
v -3.724169 -19.000000 -28.961813
v -3.724169 -19.000000 40.961814
v -3.724169 0.000000 40.961814
v -3.724169 60.000000 40.961814
v -3.724169 79.000001 -28.961813
v -3.724169 79.000001 40.961814
v -2.278464 0.000000 -26.647060
v -2.278464 60.000000 -26.647060
v -0.578188 0.000000 -22.213283
v -0.578188 60.000000 -22.213283
v -0.258819 -19.000000 58.577251
v -0.258819 79.000001 58.577251
v 0.000000 -19.000000 -17.500000
v 0.000000 -19.000000 29.500000
v 0.000000 -19.000000 57.611327
v 0.000000 0.000000 -17.500000
v 0.000000 0.000000 29.500000
v 0.000000 60.000000 -17.500000
v 0.000000 60.000000 29.500000
v 0.000000 79.000001 -17.500000
v 0.000000 79.000001 29.500000
v 0.000000 79.000001 57.611327
vt -3.993168 -1.050000 0.000000
vt -3.558053 -1.530721 0.000000
vt -2.989372 -1.842201 0.000000
vt -2.350000 -1.950000 0.000000
vt 2.350000 -1.950000 0.000000
vt 3.496181 -1.577583 0.000000
vt 4.204560 -0.602583 0.000000
vt 4.204560 0.602583 0.000000
vt 3.496181 1.577583 0.000000
vt 2.350000 1.950000 0.000000
vt -2.350000 1.950000 0.000000
vt -2.821328 1.892181 0.000000
vt -3.264706 1.722154 0.000000
vt -3.653841 1.450000 0.000000
vt 3.100000 1.450000 0.000000
vt 3.100000 -1.050000 0.000000
vt -6.650000 1.900000 0.000000
vt -6.650000 0.000000 0.000000
vt -1.950000 0.000000 0.000000
vt -1.950000 1.900000 0.000000
vt -1.900000 4.594579 0.000000
vt -1.900000 3.369358 0.000000
vt -1.900000 2.144137 0.000000
vt -1.900000 0.918916 0.000000
vt -1.900000 -0.306305 0.000000
vt -1.900000 -1.531526 0.000000
vt -0.000000 -1.531526 0.000000
vt -0.000000 -0.306305 0.000000
vt -0.000000 0.918916 0.000000
vt -0.000000 2.144137 0.000000
vt -0.000000 3.369358 0.000000
vt -0.000000 4.594579 0.000000
vt -1.950000 0.000000 0.000000
vt -1.950000 1.900000 0.000000
vt -6.650000 1.900000 0.000000
vt -6.650000 0.000000 0.000000
vt 2.350000 -1.950000 0.000000
vt 3.496181 -1.577583 0.000000
vt 4.204560 -0.602583 0.000000
vt 4.204560 0.602583 0.000000
vt 3.496181 1.577583 0.000000
vt 2.350000 1.950000 0.000000
vt -2.350000 1.950000 0.000000
vt -3.496181 1.577583 0.000000
vt -4.204560 0.602583 0.000000
vt -4.204560 -0.602583 0.000000
vt -3.496181 -1.577583 0.000000
vt -2.350000 -1.950000 0.000000
vt 6.753840 0.000000 0.000000
vt 6.753840 6.000000 0.000000
vt 0.000000 6.000000 0.000000
vt 0.000000 0.000000 0.000000
vt 3.653841 1.450000 0.000000
vt 3.264706 1.722154 0.000000
vt 2.821328 1.892181 0.000000
vt 2.350000 1.950000 0.000000
vt -2.350000 1.950000 0.000000
vt -3.496181 1.577583 0.000000
vt -4.204560 0.602583 0.000000
vt -4.204560 -0.602583 0.000000
vt -3.496181 -1.577583 0.000000
vt -2.350000 -1.950000 0.000000
vt 2.350000 -1.950000 0.000000
vt 2.989372 -1.842201 0.000000
vt 3.558053 -1.530721 0.000000
vt 3.993168 -1.050000 0.000000
vt -3.100000 -1.050000 0.000000
vt -3.100000 1.450000 0.000000
vt -4.900000 1.531526 0.000000
vt -4.900000 0.306305 0.000000
vt -4.900000 -0.918916 0.000000
vt -4.900000 -2.144137 0.000000
vt -4.900000 -3.369358 0.000000
vt -4.900000 -4.594579 0.000000
vt -3.000000 -4.594579 0.000000
vt -3.000000 -4.118537 0.000000
vt -3.000000 -3.642494 0.000000
vt -3.000000 -3.166452 0.000000
vt 3.000000 -3.166452 0.000000
vt 3.000000 -3.642494 0.000000
vt 3.000000 -4.118537 0.000000
vt 3.000000 -4.594579 0.000000
vt 4.900000 -4.594579 0.000000
vt 4.900000 -3.369358 0.000000
vt 4.900000 -2.144137 0.000000
vt 4.900000 -0.918916 0.000000
vt 4.900000 0.306305 0.000000
vt 4.900000 1.531526 0.000000
vt 3.000000 1.531526 0.000000
vt 3.000000 0.880105 0.000000
vt 3.000000 0.228685 0.000000
vt 3.000000 -0.422736 0.000000
vt -3.000000 -0.422736 0.000000
vt -3.000000 0.228685 0.000000
vt -3.000000 0.880105 0.000000
vt -3.000000 1.531526 0.000000
vt -2.350000 1.950000 0.000000
vt -3.496181 1.577583 0.000000
vt -4.204560 0.602583 0.000000
vt -4.204560 -0.602583 0.000000
vt -3.496181 -1.577583 0.000000
vt -2.350000 -1.950000 0.000000
vt 2.350000 -1.950000 0.000000
vt 3.496181 -1.577583 0.000000
vt 4.204560 -0.602583 0.000000
vt 4.204560 0.602583 0.000000
vt 3.496181 1.577583 0.000000
vt 2.350000 1.950000 0.000000
vt 1.950000 1.900000 0.000000
vt 1.950000 0.000000 0.000000
vt 6.650000 0.000000 0.000000
vt 6.650000 1.900000 0.000000
vt -1.900000 4.594579 0.000000
vt -1.900000 3.369358 0.000000
vt -1.900000 2.144137 0.000000
vt -1.900000 0.918916 0.000000
vt -1.900000 -0.306305 0.000000
vt -1.900000 -1.531526 0.000000
vt -0.000000 -1.531526 0.000000
vt -0.000000 -0.306305 0.000000
vt -0.000000 0.918916 0.000000
vt -0.000000 2.144137 0.000000
vt -0.000000 3.369358 0.000000
vt -0.000000 4.594579 0.000000
vt 6.650000 0.000000 0.000000
vt 6.650000 1.900000 0.000000
vt 1.950000 1.900000 0.000000
vt 1.950000 0.000000 0.000000
vt 0.000000 0.000000 0.000000
vt 2.500000 0.000000 0.000000
vt 2.500000 6.000000 0.000000
vt 0.000000 6.000000 0.000000
vt 0.306832 6.000000 0.000000
vt 0.306832 0.000000 0.000000
vt 7.400000 0.000000 0.000000
vt 7.400000 6.000000 0.000000
vt -0.570797 1.937059 0.000000
vt 0.474205 -1.962941 0.000000
vt 0.570797 -1.937059 0.000000
vt -0.474205 1.962941 0.000000
vt 0.100000 -4.900000 0.000000
vt 0.100000 4.900000 0.000000
vt 0.000000 4.900000 0.000000
vt 0.000000 -4.900000 0.000000
vt 4.037577 -4.900000 0.000000
vt 4.037577 4.900000 0.000000
vt 0.000000 4.900000 0.000000
vt 0.000000 -4.900000 0.000000
vt 0.100000 -4.900000 0.000000
vt 0.100000 4.900000 0.000000
vt 0.000000 4.900000 0.000000
vt 0.000000 -4.900000 0.000000
vt 4.037577 -4.900000 0.000000
vt 4.037577 4.900000 0.000000
vt 0.000000 4.900000 0.000000
vt 0.000000 -4.900000 0.000000
vt -0.474205 -1.962941 0.000000
vt 0.570797 1.937059 0.000000
vt 0.474205 1.962941 0.000000
vt -0.570797 -1.937059 0.000000
vn 0.000000 0.100000 0.000000
vn 0.000000 0.100000 0.000000
vn 0.000000 0.100000 0.000000
vn 0.000000 0.100000 0.000000
vn 0.000000 0.100000 0.000000
vn 0.000000 0.100000 0.000000
vn 0.000000 0.100000 0.000000
vn 0.000000 0.100000 0.000000
vn 0.000000 0.100000 0.000000
vn 0.000000 0.100000 0.000000
vn 0.000000 0.100000 0.000000
vn 0.000000 0.100000 0.000000
vn 0.000000 0.100000 0.000000
vn 0.000000 0.100000 0.000000
vn 0.000000 0.100000 0.000000
vn 0.000000 0.100000 0.000000
vn 0.100000 0.000000 0.000000
vn 0.100000 0.000000 0.000000
vn 0.100000 0.000000 0.000000
vn 0.100000 0.000000 0.000000
vn -0.100000 0.000000 0.000000
vn -0.080902 0.000000 0.058779
vn -0.030902 0.000000 0.095106
vn 0.030902 0.000000 0.095106
vn 0.080902 0.000000 0.058779
vn 0.100000 0.000000 0.000000
vn 0.100000 0.000000 0.000000
vn 0.080902 0.000000 0.058779
vn 0.030902 0.000000 0.095106
vn -0.030902 0.000000 0.095106
vn -0.080902 0.000000 0.058779
vn -0.100000 0.000000 0.000000
vn -0.100000 0.000000 0.000000
vn -0.100000 0.000000 0.000000
vn -0.100000 0.000000 0.000000
vn -0.100000 0.000000 0.000000
vn 0.000000 -0.100000 0.000000
vn 0.000000 -0.100000 0.000000
vn 0.000000 -0.100000 0.000000
vn 0.000000 -0.100000 0.000000
vn 0.000000 -0.100000 0.000000
vn 0.000000 -0.100000 0.000000
vn 0.000000 -0.100000 0.000000
vn 0.000000 -0.100000 0.000000
vn 0.000000 -0.100000 0.000000
vn 0.000000 -0.100000 0.000000
vn 0.000000 -0.100000 0.000000
vn 0.000000 -0.100000 0.000000
vn 0.100000 0.000000 0.000000
vn 0.100000 0.000000 0.000000
vn 0.100000 0.000000 0.000000
vn 0.100000 0.000000 0.000000
vn 0.000000 -0.100000 0.000000
vn 0.000000 -0.100000 0.000000
vn 0.000000 -0.100000 0.000000
vn 0.000000 -0.100000 0.000000
vn 0.000000 -0.100000 0.000000
vn 0.000000 -0.100000 0.000000
vn 0.000000 -0.100000 0.000000
vn 0.000000 -0.100000 0.000000
vn 0.000000 -0.100000 0.000000
vn 0.000000 -0.100000 0.000000
vn 0.000000 -0.100000 0.000000
vn 0.000000 -0.100000 0.000000
vn 0.000000 -0.100000 0.000000
vn 0.000000 -0.100000 0.000000
vn 0.000000 -0.100000 0.000000
vn 0.000000 -0.100000 0.000000
vn -0.100000 0.000000 0.000000
vn -0.080902 0.000000 -0.058779
vn -0.030902 0.000000 -0.095106
vn 0.030902 0.000000 -0.095106
vn 0.080902 0.000000 -0.058779
vn 0.100000 0.000000 0.000000
vn 0.100000 0.000000 0.000000
vn 0.097035 0.000000 -0.024171
vn 0.088316 0.000000 -0.046908
vn 0.074359 0.000000 -0.066864
vn 0.074359 0.000000 -0.066864
vn 0.088316 0.000000 -0.046908
vn 0.097035 0.000000 -0.024171
vn 0.100000 0.000000 0.000000
vn 0.100000 0.000000 0.000000
vn 0.080902 0.000000 -0.058779
vn 0.030902 0.000000 -0.095106
vn -0.030902 0.000000 -0.095106
vn -0.080902 0.000000 -0.058779
vn -0.100000 0.000000 0.000000
vn -0.100000 0.000000 0.000000
vn -0.094472 0.000000 -0.032788
vn -0.078499 0.000000 -0.061951
vn -0.053846 0.000000 -0.084265
vn -0.053846 0.000000 -0.084265
vn -0.078499 0.000000 -0.061951
vn -0.094472 0.000000 -0.032788
vn -0.100000 0.000000 0.000000
vn 0.000000 0.100000 0.000000
vn 0.000000 0.100000 0.000000
vn 0.000000 0.100000 0.000000
vn 0.000000 0.100000 0.000000
vn 0.000000 0.100000 0.000000
vn 0.000000 0.100000 0.000000
vn 0.000000 0.100000 0.000000
vn 0.000000 0.100000 0.000000
vn 0.000000 0.100000 0.000000
vn 0.000000 0.100000 0.000000
vn 0.000000 0.100000 0.000000
vn 0.000000 0.100000 0.000000
vn -0.100000 0.000000 0.000000
vn -0.100000 0.000000 0.000000
vn -0.100000 0.000000 0.000000
vn -0.100000 0.000000 0.000000
vn 0.100000 0.000000 0.000000
vn 0.080902 0.000000 0.058779
vn 0.030902 0.000000 0.095106
vn -0.030902 0.000000 0.095106
vn -0.080902 0.000000 0.058779
vn -0.100000 0.000000 0.000000
vn -0.100000 0.000000 0.000000
vn -0.080902 0.000000 0.058779
vn -0.030902 0.000000 0.095106
vn 0.030902 0.000000 0.095106
vn 0.080902 0.000000 0.058779
vn 0.100000 0.000000 0.000000
vn 0.100000 0.000000 0.000000
vn 0.100000 0.000000 0.000000
vn 0.100000 0.000000 0.000000
vn 0.100000 0.000000 0.000000
vn 0.000000 0.000000 0.100000
vn 0.000000 0.000000 0.100000
vn 0.000000 0.000000 0.100000
vn 0.000000 0.000000 0.100000
vn -0.100000 0.000000 0.000000
vn -0.100000 0.000000 0.000000
vn -0.100000 0.000000 0.000000
vn -0.100000 0.000000 0.000000
vn 0.000000 -0.100000 0.000000
vn 0.000000 -0.100000 0.000000
vn 0.000000 -0.100000 0.000000
vn 0.000000 -0.100000 0.000000
vn -0.096593 0.000000 -0.025882
vn -0.096593 0.000000 -0.025882
vn -0.096593 0.000000 -0.025882
vn -0.096593 0.000000 -0.025882
vn 0.025882 0.000000 -0.096593
vn 0.025882 0.000000 -0.096593
vn 0.025882 0.000000 -0.096593
vn 0.025882 0.000000 -0.096593
vn 0.096593 0.000000 0.025882
vn 0.096593 0.000000 0.025882
vn 0.096593 0.000000 0.025882
vn 0.096593 0.000000 0.025882
vn -0.025882 0.000000 0.096593
vn -0.025882 0.000000 0.096593
vn -0.025882 0.000000 0.096593
vn -0.025882 0.000000 0.096593
vn 0.000000 0.100000 0.000000
vn 0.000000 0.100000 0.000000
vn 0.000000 0.100000 0.000000
vn 0.000000 0.100000 0.000000
usemtl 191,191,191
f 24/16/16 23/1/1 6/4/4
f 6/4/4 23/1/1 21/2/2
f 6/4/4 21/2/2 13/3/3
f 6/4/4 7/5/5 24/16/16
f 24/16/16 7/5/5 17/6/6
f 24/16/16 17/6/6 29/7/7
f 29/7/7 35/8/8 24/16/16
f 24/16/16 35/8/8 40/15/15
f 40/15/15 35/8/8 45/9/9
f 40/15/15 45/9/9 59/10/10
f 59/10/10 58/11/11 40/15/15
f 40/15/15 58/11/11 39/14/14
f 39/14/14 58/11/11 49/13/13
f 49/13/13 58/11/11 51/12/12
f 58/18/18 59/19/19 55/17/17
f 55/17/17 59/19/19 56/20/20
f 7/32/32 4/21/21 17/31/31
f 17/31/31 4/21/21 16/22/22
f 17/31/31 16/22/22 29/30/30
f 29/30/30 16/22/22 28/23/23
f 29/30/30 28/23/23 35/29/29
f 35/29/29 28/23/23 34/24/24
f 35/29/29 34/24/24 45/28/28
f 45/28/28 34/24/24 44/25/25
f 45/28/28 44/25/25 59/27/27
f 59/27/27 44/25/25 56/26/26
f 3/34/34 4/35/35 6/33/33
f 6/33/33 4/35/35 7/36/36
f 15/38/38 27/39/39 3/37/37
f 3/37/37 27/39/39 28/46/46
f 3/37/37 28/46/46 4/48/48
f 4/48/48 28/46/46 16/47/47
f 28/46/46 27/39/39 34/45/45
f 34/45/45 27/39/39 33/40/40
f 34/45/45 33/40/40 56/43/43
f 56/43/43 33/40/40 55/42/42
f 55/42/42 33/40/40 43/41/41
f 56/43/43 44/44/44 34/45/45
f 41/50/50 42/51/51 39/49/49
f 39/49/49 42/51/51 40/52/52
f 42/68/68 41/53/53 60/56/56
f 60/56/56 41/53/53 50/54/54
f 60/56/56 50/54/54 52/55/55
f 60/56/56 61/57/57 42/68/68
f 42/68/68 61/57/57 46/58/58
f 42/68/68 46/58/58 36/59/59
f 42/68/68 36/59/59 26/67/67
f 26/67/67 36/59/59 30/60/60
f 26/67/67 30/60/60 18/61/61
f 18/61/61 9/62/62 26/67/67
f 26/67/67 9/62/62 8/63/63
f 26/67/67 8/63/63 25/66/66
f 25/66/66 8/63/63 22/65/65
f 22/65/65 8/63/63 14/64/64
f 8/96/96 10/69/69 14/95/95
f 14/95/95 10/69/69 19/70/70
f 14/95/95 19/70/70 22/94/94
f 22/94/94 19/70/70 25/93/93
f 25/93/93 19/70/70 31/71/71
f 25/93/93 31/71/71 27/86/86
f 27/86/86 31/71/71 33/85/85
f 33/85/85 31/71/71 37/72/72
f 33/85/85 37/72/72 39/79/79
f 39/79/79 37/72/72 41/78/78
f 41/78/78 37/72/72 47/73/73
f 41/78/78 47/73/73 50/77/77
f 50/77/77 47/73/73 52/76/76
f 52/76/76 47/73/73 62/74/74
f 52/76/76 62/74/74 60/75/75
f 33/85/85 39/79/79 43/84/84
f 43/84/84 39/79/79 49/80/80
f 43/84/84 49/80/80 51/81/81
f 58/82/82 55/83/83 51/81/81
f 51/81/81 55/83/83 43/84/84
f 25/93/93 27/86/86 23/92/92
f 23/92/92 27/86/86 15/87/87
f 23/92/92 15/87/87 21/91/91
f 21/91/91 15/87/87 13/90/90
f 13/90/90 15/87/87 3/88/88
f 13/90/90 3/88/88 6/89/89
f 47/98/98 37/99/99 62/97/97
f 62/97/97 37/99/99 38/106/106
f 62/97/97 38/106/106 63/108/108
f 63/108/108 38/106/106 48/107/107
f 38/106/106 37/99/99 32/105/105
f 32/105/105 37/99/99 31/100/100
f 32/105/105 31/100/100 11/103/103
f 11/103/103 31/100/100 10/102/102
f 10/102/102 31/100/100 19/101/101
f 11/103/103 20/104/104 32/105/105
f 8/110/110 9/111/111 10/109/109
f 10/109/109 9/111/111 11/112/112
f 61/124/124 63/113/113 46/123/123
f 46/123/123 63/113/113 48/114/114
f 46/123/123 48/114/114 36/122/122
f 36/122/122 48/114/114 38/115/115
f 36/122/122 38/115/115 30/121/121
f 30/121/121 38/115/115 32/116/116
f 30/121/121 32/116/116 18/120/120
f 18/120/120 32/116/116 20/117/117
f 18/120/120 20/117/117 9/119/119
f 9/119/119 20/117/117 11/118/118
f 62/126/126 63/127/127 60/125/125
f 60/125/125 63/127/127 61/128/128
f 24/129/129 40/130/130 26/132/132
f 26/132/132 40/130/130 42/131/131
f 23/134/134 24/135/135 25/133/133
f 25/133/133 24/135/135 26/136/136
f 53/137/137 1/138/138 57/140/140
f 57/140/140 1/138/138 5/139/139
f 2/142/142 12/143/143 1/141/141
f 1/141/141 12/143/143 5/144/144
f 12/146/146 64/147/147 5/145/145
f 5/145/145 64/147/147 57/148/148
f 64/150/150 54/151/151 57/149/149
f 57/149/149 54/151/151 53/152/152
f 54/154/154 2/155/155 53/153/153
f 53/153/153 2/155/155 1/156/156
f 54/158/158 64/159/159 2/157/157
f 2/157/157 64/159/159 12/160/160

# 64 vertices
# 160 texture params
# 160 normals
# 120 facets

# 1 groups
